<svg width="130" height="29" viewBox="0 0 130 29" fill="none" xmlns="http://www.w3.org/2000/svg">
<mask id="path-1-inside-1_37_261" fill="white">
<path fill-rule="evenodd" clip-rule="evenodd" d="M45 14.3182C45 6.41047 38.5895 0 30.6818 0H24.5455C23.7923 0 23.1818 0.610521 23.1818 1.36364V12.2727H29.3182C30.4479 12.2727 31.3636 13.1885 31.3636 14.3182C31.3636 15.4478 30.4479 16.3636 29.3182 16.3636H23.1818V27.2727C23.1818 28.0258 23.7923 28.6364 24.5455 28.6364H30.6818C38.5895 28.6364 45 22.2259 45 14.3182ZM21.8182 16.3636V27.2727C21.8182 28.0259 21.2077 28.6364 20.4545 28.6364H14.3182C6.41047 28.6364 0 22.2259 0 14.3182C0 6.41048 6.41047 1.10973e-05 14.3182 1.10973e-05H20.4545C21.2077 1.10973e-05 21.8182 0.610532 21.8182 1.36365V12.2727H15.6818C14.5521 12.2727 13.6364 13.1885 13.6364 14.3182C13.6364 15.4478 14.5521 16.3636 15.6818 16.3636H21.8182Z"/>
</mask>
<path fill-rule="evenodd" clip-rule="evenodd" d="M45 14.3182C45 6.41047 38.5895 0 30.6818 0H24.5455C23.7923 0 23.1818 0.610521 23.1818 1.36364V12.2727H29.3182C30.4479 12.2727 31.3636 13.1885 31.3636 14.3182C31.3636 15.4478 30.4479 16.3636 29.3182 16.3636H23.1818V27.2727C23.1818 28.0258 23.7923 28.6364 24.5455 28.6364H30.6818C38.5895 28.6364 45 22.2259 45 14.3182ZM21.8182 16.3636V27.2727C21.8182 28.0259 21.2077 28.6364 20.4545 28.6364H14.3182C6.41047 28.6364 0 22.2259 0 14.3182C0 6.41048 6.41047 1.10973e-05 14.3182 1.10973e-05H20.4545C21.2077 1.10973e-05 21.8182 0.610532 21.8182 1.36365V12.2727H15.6818C14.5521 12.2727 13.6364 13.1885 13.6364 14.3182C13.6364 15.4478 14.5521 16.3636 15.6818 16.3636H21.8182Z" fill="white"/>
<path fill-rule="evenodd" clip-rule="evenodd" d="M45 14.3182C45 6.41047 38.5895 0 30.6818 0H24.5455C23.7923 0 23.1818 0.610521 23.1818 1.36364V12.2727H29.3182C30.4479 12.2727 31.3636 13.1885 31.3636 14.3182C31.3636 15.4478 30.4479 16.3636 29.3182 16.3636H23.1818V27.2727C23.1818 28.0258 23.7923 28.6364 24.5455 28.6364H30.6818C38.5895 28.6364 45 22.2259 45 14.3182ZM21.8182 16.3636V27.2727C21.8182 28.0259 21.2077 28.6364 20.4545 28.6364H14.3182C6.41047 28.6364 0 22.2259 0 14.3182C0 6.41048 6.41047 1.10973e-05 14.3182 1.10973e-05H20.4545C21.2077 1.10973e-05 21.8182 0.610532 21.8182 1.36365V12.2727H15.6818C14.5521 12.2727 13.6364 13.1885 13.6364 14.3182C13.6364 15.4478 14.5521 16.3636 15.6818 16.3636H21.8182Z" fill="white"/>
<path d="M23.1818 12.2727H21.8182V13.6364H23.1818V12.2727ZM23.1818 16.3636V15H21.8182V16.3636H23.1818ZM21.8182 16.3636H23.1818V15H21.8182V16.3636ZM21.8182 12.2727V13.6364H23.1818V12.2727H21.8182ZM30.6818 1.36364C37.8364 1.36364 43.6364 7.16359 43.6364 14.3182H46.3636C46.3636 5.65736 39.3426 -1.36364 30.6818 -1.36364V1.36364ZM24.5455 1.36364H30.6818V-1.36364H24.5455V1.36364ZM24.5455 1.36364L24.5455 1.36364V-1.36364C23.0392 -1.36364 21.8182 -0.142595 21.8182 1.36364H24.5455ZM24.5455 12.2727V1.36364H21.8182V12.2727H24.5455ZM23.1818 13.6364H29.3182V10.9091H23.1818V13.6364ZM29.3182 13.6364C29.6947 13.6364 30 13.9416 30 14.3182H32.7273C32.7273 12.4354 31.201 10.9091 29.3182 10.9091V13.6364ZM30 14.3182C30 14.6947 29.6947 15 29.3182 15V17.7273C31.201 17.7273 32.7273 16.201 32.7273 14.3182H30ZM29.3182 15H23.1818V17.7273H29.3182V15ZM24.5455 27.2727V16.3636H21.8182V27.2727H24.5455ZM24.5455 27.2727L24.5455 27.2727H21.8182C21.8182 28.779 23.0392 30 24.5455 30V27.2727ZM30.6818 27.2727H24.5455V30H30.6818V27.2727ZM43.6364 14.3182C43.6364 21.4728 37.8364 27.2727 30.6818 27.2727V30C39.3426 30 46.3636 22.979 46.3636 14.3182H43.6364ZM23.1818 27.2727V16.3636H20.4545V27.2727H23.1818ZM20.4545 30C21.9608 30 23.1818 28.779 23.1818 27.2727H20.4545L20.4545 27.2727V30ZM14.3182 30H20.4545V27.2727H14.3182V30ZM-1.36364 14.3182C-1.36364 22.979 5.65735 30 14.3182 30V27.2727C7.16359 27.2727 1.36364 21.4728 1.36364 14.3182H-1.36364ZM14.3182 -1.36363C5.65735 -1.36363 -1.36364 5.65737 -1.36364 14.3182H1.36364C1.36364 7.1636 7.16359 1.36365 14.3182 1.36365V-1.36363ZM20.4545 -1.36363H14.3182V1.36365H20.4545V-1.36363ZM23.1818 1.36365C23.1818 -0.142584 21.9608 -1.36363 20.4545 -1.36363V1.36365L20.4545 1.36365H23.1818ZM23.1818 12.2727V1.36365H20.4545V12.2727H23.1818ZM15.6818 13.6364H21.8182V10.9091H15.6818V13.6364ZM15 14.3182C15 13.9416 15.3053 13.6364 15.6818 13.6364V10.9091C13.799 10.9091 12.2727 12.4354 12.2727 14.3182H15ZM15.6818 15C15.3053 15 15 14.6947 15 14.3182H12.2727C12.2727 16.201 13.799 17.7273 15.6818 17.7273V15ZM21.8182 15H15.6818V17.7273H21.8182V15Z" fill="#08090E" mask="url(#path-1-inside-1_37_261)"/>
<rect x="20.4545" y="12.2727" width="4.09091" height="4.09091" rx="1.36364" fill="white"/>
<path d="M62.7021 21V5.6499H65.2656L70.2388 17.8726L75.2119 5.6499H77.8677V21H75.2119V16.2729C75.2119 13.8257 75.2632 12.103 75.3657 11.105L71.5 21H68.957L65.0913 11.1255C65.228 12.0278 65.2861 13.4839 65.2656 15.4937V21H62.7021ZM79.7954 21L85.3325 5.6499H88.0806L93.6279 21H90.7979L89.5571 17.4521H83.8252L82.564 21H79.7954ZM84.6045 15.2065H88.7778L87.0347 10.2231C86.8501 9.65576 86.7441 9.26611 86.7168 9.0542C86.6758 9.36182 86.5664 9.75146 86.3887 10.2231L84.6045 15.2065ZM101.031 12.3662H108.199V21H105.902L105.738 19.2773C105.321 19.8789 104.685 20.3574 103.831 20.7129C102.976 21.0615 102.043 21.2358 101.031 21.2358C99.623 21.2358 98.3755 20.9111 97.2886 20.2617C96.2085 19.6123 95.3677 18.6929 94.7661 17.5034C94.1714 16.314 93.874 14.9399 93.874 13.3813C93.874 11.8296 94.1816 10.4487 94.7969 9.23877C95.4121 8.02881 96.2939 7.08203 97.4424 6.39844C98.5977 5.71484 99.9341 5.37305 101.452 5.37305C103.208 5.37305 104.685 5.84814 105.881 6.79834C107.078 7.7417 107.785 8.99609 108.004 10.5615H105.297C105.01 9.68652 104.521 9.02344 103.831 8.57227C103.147 8.12109 102.333 7.89551 101.39 7.89551C99.9272 7.89551 98.7617 8.40137 97.8936 9.41309C97.0322 10.4248 96.6016 11.7681 96.6016 13.4429C96.6016 15.1177 97.0322 16.4199 97.8936 17.3496C98.7617 18.2725 99.9067 18.7339 101.329 18.7339C102.593 18.7339 103.632 18.3716 104.446 17.647C105.266 16.9224 105.676 16.0884 105.676 15.145V14.7451H101.031V12.3662ZM113.746 21H111.06V5.6499H113.746V21ZM115.643 5.6499H119.068L120.914 8.39795C121.795 9.77197 122.397 10.7598 122.718 11.3613L126.287 5.6499H129.609L124.359 13.3096L129.65 21H126.205L124.523 18.457C123.798 17.3291 123.19 16.3208 122.698 15.4321L118.996 20.9795H115.664L120.975 13.3301L115.643 5.6499Z" fill="white"/>
</svg>
