<svg width="122" height="29" viewBox="0 0 122 29" fill="none" xmlns="http://www.w3.org/2000/svg">
<mask id="path-1-inside-1_19_219" fill="white">
<path fill-rule="evenodd" clip-rule="evenodd" d="M0.398436 0L50.07 25.4089C56.9337 28.92 65.0662 28.92 71.9298 25.4089L121.601 0H0.398436Z"/>
</mask>
<path fill-rule="evenodd" clip-rule="evenodd" d="M0.398436 0L50.07 25.4089C56.9337 28.92 65.0662 28.92 71.9298 25.4089L121.601 0H0.398436Z" fill="#17181D"/>
<path d="M50.07 25.4089L50.9809 23.6284L50.07 25.4089ZM0.398436 0V-2L-0.51239 1.78056L0.398436 0ZM71.9298 25.4089L72.8407 27.1895L71.9298 25.4089ZM121.601 0L122.512 1.78056L121.601 -2V0ZM50.9809 23.6284L1.30926 -1.78056L-0.51239 1.78056L49.1592 27.1895L50.9809 23.6284ZM71.019 23.6284C64.7273 26.8468 57.2725 26.8468 50.9809 23.6284L49.1592 27.1895C56.5948 30.9931 65.405 30.9931 72.8407 27.1895L71.019 23.6284ZM120.691 -1.78056L71.019 23.6284L72.8407 27.1895L122.512 1.78056L120.691 -1.78056ZM121.601 -2H0.398436V2H121.601V-2Z" fill="#383839" mask="url(#path-1-inside-1_19_219)"/>
<path fill-rule="evenodd" clip-rule="evenodd" d="M4.99994 0L50.0119 23.1804C56.907 26.7312 65.093 26.7312 71.9881 23.1804L117 0H4.99994Z" fill="#17181D"/>
<rect x="44.9999" width="32" height="4" rx="2" fill="#383839"/>
</svg>
